HIERARCHY
ROOT hip
{
  OFFSET 0 0 0
  CHANNELS 6 Xposition Yposition Zposition Zrotation Yrotation Xrotation
  JOINT abdomen
  {
    OFFSET 0 20.6881 -0.73152
    CHANNELS 3 Zrotation Xrotation Yrotation
    JOINT chest
    {
      OFFSET 0 11.7043 -0.48768
      CHANNELS 3 Zrotation Xrotation Yrotation
      JOINT neck
      {
        OFFSET 0 22.1894 -2.19456
        CHANNELS 3 Zrotation Xrotation Yrotation
        JOINT head
        {
          OFFSET -0.24384 7.07133 1.2192
          CHANNELS 3 Zrotation Xrotation Yrotation
          JOINT leftEye
          {
            OFFSET 4.14528 8.04674 8.04672
            CHANNELS 3 Zrotation Xrotation Yrotation
            End Site
            {
              OFFSET 1 0 0
            }
          }
          JOINT rightEye
          {
            OFFSET -3.6576 8.04674 8.04672
            CHANNELS 3 Zrotation Xrotation Yrotation
            End Site
            {
              OFFSET 1 0 0
            }
          }
        }
      }
      JOINT rCollar
      {
        OFFSET -2.68224 19.2634 -4.8768
        CHANNELS 3 Zrotation Xrotation Yrotation
        JOINT rShldr
        {
          OFFSET -8.77824 -1.95073 1.46304
          CHANNELS 3 Zrotation Xrotation Yrotation
          JOINT rForeArm
          {
            OFFSET -28.1742 -1.7115 0.48768
            CHANNELS 3 Zrotation Xrotation Yrotation
            JOINT rHand
            {
              OFFSET -22.5879 0.773209 7.07136
              CHANNELS 3 Zrotation Xrotation Yrotation
              JOINT rThumb1
              {
                OFFSET -1.2192 -0.487915 3.41376
                CHANNELS 3 Zrotation Xrotation Yrotation
                JOINT rThumb2
                {
                  OFFSET -3.37035 -0.52449 3.41376
                  CHANNELS 3 Zrotation Xrotation Yrotation
                  End Site
                  {
                    OFFSET -1.78271 -1.18214 1.43049
                  }
                }
              }
              JOINT rIndex1
              {
                OFFSET -7.75947 0.938293 5.60832
                CHANNELS 3 Zrotation Xrotation Yrotation
                JOINT rIndex2
                {
                  OFFSET -2.54057 -0.884171 1.56538
                  CHANNELS 3 Zrotation Xrotation Yrotation
                  End Site
                  {
                    OFFSET -1.62519 -0.234802 1.16502
                  }
                }
              }
              JOINT rMid1
              {
                OFFSET -8.24714 1.18213 3.41376
                CHANNELS 3 Zrotation Xrotation Yrotation
                JOINT rMid2
                {
                  OFFSET -3.10165 -0.590103 1.0647
                  CHANNELS 3 Zrotation Xrotation Yrotation
                  End Site
                  {
                    OFFSET -2.48547 -0.328903 0.83742
                  }
                }
              }
              JOINT rRing1
              {
                OFFSET -8.82822 0.546677 1.51678
                CHANNELS 3 Zrotation Xrotation Yrotation
                JOINT rRing2
                {
                  OFFSET -2.60934 -0.819778 -0.0198488
                  CHANNELS 3 Zrotation Xrotation Yrotation
                  End Site
                  {
                    OFFSET -2.33842 -0.294052 0.168128
                  }
                }
              }
              JOINT rPinky1
              {
                OFFSET -8.27202 -0.0477905 -0.4584
                CHANNELS 3 Zrotation Xrotation Yrotation
                JOINT rPinky2
                {
                  OFFSET -1.82734 -0.647385 -0.700984
                  CHANNELS 3 Zrotation Xrotation Yrotation
                  End Site
                  {
                    OFFSET -1.69225 -0.51767 -0.607171
                  }
                }
              }
            }
          }
        }
      }
      JOINT lCollar
      {
        OFFSET 2.68224 19.2634 -4.8768
        CHANNELS 3 Zrotation Xrotation Yrotation
        JOINT lShldr
        {
          OFFSET 8.77824 -1.95073 1.46304
          CHANNELS 3 Zrotation Xrotation Yrotation
          JOINT lForeArm
          {
            OFFSET 28.1742 -1.7115 0.48768
            CHANNELS 3 Zrotation Xrotation Yrotation
            JOINT lHand
            {
              OFFSET 22.5879 0.773209 7.07136
              CHANNELS 3 Zrotation Xrotation Yrotation
              JOINT lThumb1
              {
                OFFSET 1.2192 -0.487915 3.41376
                CHANNELS 3 Zrotation Xrotation Yrotation
                JOINT lThumb2
                {
                  OFFSET 3.37035 -0.52449 3.41376
                  CHANNELS 3 Zrotation Xrotation Yrotation
                  End Site
                  {
                    OFFSET 1.78271 -1.18214 1.43049
                  }
                }
              }
              JOINT lIndex1
              {
                OFFSET 7.75947 0.938293 5.60832
                CHANNELS 3 Zrotation Xrotation Yrotation
                JOINT lIndex2
                {
                  OFFSET 2.54057 -0.884171 1.56538
                  CHANNELS 3 Zrotation Xrotation Yrotation
                  End Site
                  {
                    OFFSET 1.62519 -0.234802 1.16502
                  }
                }
              }
              JOINT lMid1
              {
                OFFSET 8.24714 1.18213 3.41376
                CHANNELS 3 Zrotation Xrotation Yrotation
                JOINT lMid2
                {
                  OFFSET 3.10165 -0.590103 1.0647
                  CHANNELS 3 Zrotation Xrotation Yrotation
                  End Site
                  {
                    OFFSET 2.48547 -0.328903 0.83742
                  }
                }
              }
              JOINT lRing1
              {
                OFFSET 8.82822 0.546677 1.51678
                CHANNELS 3 Zrotation Xrotation Yrotation
                JOINT lRing2
                {
                  OFFSET 2.60934 -0.819778 -0.0198488
                  CHANNELS 3 Zrotation Xrotation Yrotation
                  End Site
                  {
                    OFFSET 2.33842 -0.294052 0.168128
                  }
                }
              }
              JOINT lPinky1
              {
                OFFSET 8.27202 -0.0477905 -0.4584
                CHANNELS 3 Zrotation Xrotation Yrotation
                JOINT lPinky2
                {
                  OFFSET 1.82734 -0.647385 -0.700984
                  CHANNELS 3 Zrotation Xrotation Yrotation
                  End Site
                  {
                    OFFSET 1.69225 -0.51767 -0.607171
                  }
                }
              }
            }
          }
        }
      }
    }
  }
  JOINT rButtock
  {
    OFFSET -8.77824 4.35084 1.2192
    CHANNELS 3 Zrotation Xrotation Yrotation
    JOINT rThigh
    {
      OFFSET 0 -1.70687 -2.19456
      CHANNELS 3 Zrotation Xrotation Yrotation
      JOINT rShin
      {
        OFFSET 0 -36.8199 0.73152
        CHANNELS 3 Zrotation Xrotation Yrotation
        JOINT rFoot
        {
          OFFSET 0.73152 -45.1104 -5.12064
          CHANNELS 3 Zrotation Xrotation Yrotation
          End Site
          {
            OFFSET -1.1221 -3.69964 12.103
          }
        }
      }
    }
  }
  JOINT lButtock
  {
    OFFSET 8.77824 4.35084 1.2192
    CHANNELS 3 Zrotation Xrotation Yrotation
    JOINT lThigh
    {
      OFFSET 0 -1.70687 -2.19456
      CHANNELS 3 Zrotation Xrotation Yrotation
      JOINT lShin
      {
        OFFSET 0 -36.8199 0.73152
        CHANNELS 3 Zrotation Xrotation Yrotation
        JOINT lFoot
        {
          OFFSET -0.73152 -45.1104 -5.12064
          CHANNELS 3 Zrotation Xrotation Yrotation
          End Site
          {
            OFFSET 1.1221 -3.69964 12.103
          }
        }
      }
    }
  }
}
MOTION
Frames:	9
Frame Time:	0.00833333
-22.4187 76.7576 11.8842 0.8996 17.962 11.777 -7.01724 -12.6617 -2.6585 -1.70879 -4.92927 -0.675342 6.9106 2.04053 -0.759926 3.36337 28.936 -3.46315 -0.0 0.0 0.0 -0.0 0.0 0.0 -8.39889e-14 2.7385e-14 -5.50603e-14 -20.4087 -8.22386 51.3581 -28.2792 -32.626 71.4857 -0.022691 5.16511 0.727677 5.25602e-10 5.37132e-10 1.64308e-10 9.0177e-10 9.25608e-10 2.75712e-10 5.25612e-10 5.37145e-10 1.64324e-10 7.73091 5.47488 0.417314 5.25608e-10 5.37136e-10 1.64324e-10 2.90554 0.965183 0.102902 5.25603e-10 5.37137e-10 1.64311e-10 10.2786 0.731801 0.0259123 5.25598e-10 5.37138e-10 1.64324e-10 2.22167 -0.733487 -0.20892 -8.39183e-14 2.73809e-14 -5.52932e-14 -98.9984 53.5608 45.4904 28.2026 -39.1671 -82.4412 2.26466 -38.6421 6.45185 4.15768e-10 1.80352e-09 1.56063e-10 7.12347e-10 3.09602e-09 2.81658e-10 4.15765e-10 1.80352e-09 1.56072e-10 -7.73091 5.47488 -0.417314 4.15771e-10 1.80352e-09 1.56071e-10 -2.90554 0.965183 -0.102902 4.15763e-10 1.80352e-09 1.56064e-10 -10.2786 0.731801 -0.0259123 4.15776e-10 1.80353e-09 1.5606e-10 -2.22167 -0.733487 0.20892 -2.03217e-16 0.0 -3.88251e-19 -15.7322 -51.9648 -10.9594 -0.530022 48.691 1.17038 -2.80311 -3.92916 -8.79404 2.03217e-16 0.0 3.88251e-19 9.1494 9.47929 -15.0277 -0.125692 8.51632 -1.0837 6.64958 -17.5874 19.4328
-22.7615 76.696 12.3991 0.8905 18.3762 12.0157 -7.15555 -12.7141 -2.86564 -1.67351 -4.92563 -0.727784 6.87134 1.9771 -0.812816 3.73464 28.8038 -3.65452 -0.0 0.0 0.0 -0.0 0.0 0.0 -1.30408e-13 5.85744e-14 -2.97147e-13 -20.0749 -9.20552 50.4938 -28.1446 -31.5621 69.8216 -0.0686917 7.73721 1.09435 1.47653e-09 7.87684e-10 -1.07865e-09 2.54203e-09 1.3564e-09 -1.8787e-09 1.47653e-09 7.877e-10 -1.07864e-09 7.73091 5.47488 0.417314 1.47653e-09 7.87688e-10 -1.07864e-09 2.90554 0.965183 0.102902 1.47653e-09 7.87689e-10 -1.07865e-09 10.2786 0.731801 0.0259123 1.47652e-09 7.87691e-10 -1.07864e-09 2.22167 -0.733487 -0.20892 -1.30325e-13 5.85726e-14 -2.97357e-13 -99.7457 52.6284 46.9621 28.2191 -39.0435 -82.2231 2.33317 -39.1126 6.56141 1.05911e-09 4.3824e-09 5.9561e-10 1.81184e-09 7.47621e-09 1.05569e-09 1.05911e-09 4.3824e-09 5.95621e-10 -7.73091 5.47488 -0.417314 1.05912e-09 4.3824e-09 5.95619e-10 -2.90554 0.965183 -0.102902 1.05911e-09 4.3824e-09 5.95613e-10 -10.2786 0.731801 -0.0259123 1.05912e-09 4.3824e-09 5.95609e-10 -2.22167 -0.733487 0.20892 -2.03217e-16 0.0 -3.88251e-19 -15.7209 -52.1972 -11.3578 -0.549045 49.3463 1.20004 -2.92819 -4.45858 -8.95179 2.03217e-16 0.0 3.88251e-19 9.50058 9.27179 -15.2258 -0.12561 8.60711 -1.08673 6.60664 -17.1757 19.7833
-23.0931 76.6312 12.8871 0.884 18.7206 12.2534 -7.27602 -12.7413 -3.01977 -1.64437 -4.93574 -0.766675 6.83159 1.92078 -0.867988 4.06899 28.6667 -3.8392 -0.0 0.0 0.0 -0.0 0.0 0.0 -1.48362e-13 9.30316e-14 -4.5472e-13 -19.6105 -10.2862 49.8027 -27.976 -30.4714 68.0016 -0.128897 10.1832 1.44658 2.09969e-09 8.50083e-10 -1.92209e-09 3.61571e-09 1.46209e-09 -3.34058e-09 2.09969e-09 8.50099e-10 -1.92209e-09 7.73091 5.47488 0.417314 2.09968e-09 8.50085e-10 -1.92208e-09 2.90554 0.965183 0.102902 2.09969e-09 8.50086e-10 -1.92209e-09 10.2786 0.731801 0.0259123 2.09968e-09 8.50089e-10 -1.92208e-09 2.22167 -0.733487 -0.20892 -1.48284e-13 9.30314e-14 -4.54919e-13 -100.506 51.7552 48.3908 28.2328 -38.9344 -82.0327 2.40379 -39.5848 6.67299 1.40405e-09 5.8231e-09 8.43413e-10 2.40173e-09 9.92598e-09 1.49078e-09 1.40404e-09 5.82309e-09 8.43426e-10 -7.73091 5.47488 -0.417314 1.40405e-09 5.8231e-09 8.43423e-10 -2.90554 0.965183 -0.102902 1.40404e-09 5.8231e-09 8.43418e-10 -10.2786 0.731801 -0.0259123 1.40405e-09 5.8231e-09 8.43413e-10 -2.22167 -0.733487 0.20892 -2.03217e-16 0.0 -3.88251e-19 -15.7231 -52.4329 -11.7625 -0.568341 49.9894 1.23017 -3.04093 -4.95612 -9.06736 2.03217e-16 0.0 3.88251e-19 9.81649 9.09909 -15.3625 -0.125632 8.69538 -1.09079 6.55315 -16.8134 20.0629
-23.4078 76.5562 13.3557 0.8952 19.0011 12.48 -7.37521 -12.744 -3.11136 -1.61916 -4.96197 -0.789297 6.79561 1.87242 -0.923384 4.34333 28.5226 -4.00824 -0.0 0.0 0.0 -0.0 0.0 0.0 -1.15745e-13 1.46181e-13 -4.8475e-13 -19.0087 -11.4773 49.322 -27.7564 -29.2668 65.9084 -0.194852 12.5025 1.78478 2.24962e-09 5.54959e-10 -2.26131e-09 3.87016e-09 9.5005e-10 -3.92757e-09 2.24962e-09 5.54971e-10 -2.26132e-09 7.73091 5.47488 0.417314 2.24962e-09 5.54961e-10 -2.26131e-09 2.90554 0.965183 0.102902 2.24962e-09 5.54961e-10 -2.26131e-09 10.2786 0.731801 0.0259123 2.24961e-09 5.54963e-10 -2.2613e-09 2.22167 -0.733487 -0.20892 -1.15696e-13 1.46182e-13 -4.84953e-13 -101.298 50.9462 49.7971 28.2445 -38.8381 -81.8647 2.47012 -40.0118 6.77592 1.23569e-09 5.41302e-09 7.87818e-10 2.11491e-09 9.23852e-09 1.38755e-09 1.23568e-09 5.41302e-09 7.87832e-10 -7.73091 5.47488 -0.417314 1.23569e-09 5.41303e-09 7.87828e-10 -2.90554 0.965183 -0.102902 1.23568e-09 5.41303e-09 7.87823e-10 -10.2786 0.731801 -0.0259123 1.23569e-09 5.41302e-09 7.87818e-10 -2.22167 -0.733487 0.20892 -2.03217e-16 0.0 -3.88251e-19 -15.7425 -52.6827 -12.1817 -0.588083 50.6264 1.26102 -3.13538 -5.41059 -9.12818 2.03217e-16 0.0 3.88251e-19 10.0924 8.96523 -15.4224 -0.125797 8.78148 -1.09627 6.49158 -16.5126 20.2604
-23.7078 76.4754 13.806 0.9109 19.2185 12.6868 -7.46955 -12.734 -3.15292 -1.59352 -4.99901 -0.798114 6.75975 1.83034 -0.981301 4.57681 28.3663 -4.17033 -0.0 0.0 0.0 -0.0 0.0 0.0 -5.0531e-14 2.17272e-13 -4.41373e-13 -18.2684 -12.7474 49.0188 -27.44 -27.8735 63.622 -0.273404 14.8079 2.12769 2.13061e-09 2.03617e-11 -2.35175e-09 3.65881e-09 2.41034e-11 -4.08258e-09 2.13061e-09 2.03655e-11 -2.35177e-09 7.73091 5.47488 0.417314 2.1306e-09 2.03614e-11 -2.35175e-09 2.90554 0.965183 0.102902 2.13061e-09 2.03614e-11 -2.35175e-09 10.2786 0.731801 0.0259123 2.1306e-09 2.03626e-11 -2.35174e-09 2.22167 -0.733487 -0.20892 -5.05295e-14 2.17272e-13 -4.41588e-13 -102.113 50.1996 51.1689 28.2548 -38.7533 -81.7159 2.53069 -40.3921 6.8689 7.23908e-10 3.46312e-09 5.19217e-10 1.24192e-09 5.93162e-09 9.06672e-10 7.23905e-10 3.46312e-09 5.19232e-10 -7.73091 5.47488 -0.417314 7.2391e-10 3.46312e-09 5.19227e-10 -2.90554 0.965183 -0.102902 7.23898e-10 3.46312e-09 5.1922e-10 -10.2786 0.731801 -0.0259123 7.23912e-10 3.46311e-09 5.19216e-10 -2.22167 -0.733487 0.20892 -2.03217e-16 0.0 -3.88251e-19 -15.7915 -52.9468 -12.6172 -0.607958 51.2475 1.29238 -3.2169 -5.83659 -9.15328 2.03217e-16 0.0 3.88251e-19 10.326 8.84972 -15.4208 -0.126049 8.86662 -1.10283 6.42097 -16.2552 20.3879
-23.9923 76.3892 14.2421 0.9325 19.3888 12.8678 -7.55369 -12.7016 -3.15633 -1.5757 -5.04553 -0.797399 6.71725 1.79389 -1.04465 4.80695 28.2065 -4.33912 -0.0 0.0 0.0 -0.0 0.0 0.0 1.10196e-14 2.72161e-13 -3.80803e-13 -17.3792 -14.0763 48.8597 -27.0306 -26.4027 61.3677 -0.365092 17.0161 2.464 1.91671e-09 -4.61168e-10 -2.23739e-09 3.28502e-09 -8.10157e-10 -3.88374e-09 1.91672e-09 -4.61172e-10 -2.23742e-09 7.73091 5.47488 0.417314 1.91671e-09 -4.61169e-10 -2.23739e-09 2.90554 0.965183 0.102902 1.91672e-09 -4.6117e-10 -2.23739e-09 10.2786 0.731801 0.0259123 1.91671e-09 -4.6117e-10 -2.23738e-09 2.22167 -0.733487 -0.20892 1.09701e-14 2.72161e-13 -3.81034e-13 -102.95 49.5021 52.4949 28.2628 -38.6863 -81.5983 2.60101 -40.8322 6.97698 2.24787e-10 1.34351e-09 2.21037e-10 3.90802e-10 2.33223e-09 3.76221e-10 2.24785e-10 1.34352e-09 2.21053e-10 -7.73091 5.47488 -0.417314 2.24789e-10 1.34351e-09 2.21048e-10 -2.90554 0.965183 -0.102902 2.24775e-10 1.34351e-09 2.21039e-10 -10.2786 0.731801 -0.0259123 2.24789e-10 1.34351e-09 2.21035e-10 -2.22167 -0.733487 0.20892 -2.03217e-16 0.0 -3.88251e-19 -15.8537 -53.2007 -13.0504 -0.627757 51.8463 1.32379 -3.29024 -6.24912 -9.15589 2.03217e-16 0.0 3.88251e-19 10.5323 8.75837 -15.3812 -0.126332 8.94909 -1.10986 6.34348 -16.0264 20.4629
-24.2574 76.3013 14.6636 0.9674 19.5307 13.0225 -7.62233 -12.6367 -3.13345 -1.57394 -5.10021 -0.791422 6.66134 1.76237 -1.11633 5.07124 28.0519 -4.52819 -0.0 0.0 0.0 -0.0 0.0 0.0 3.26468e-14 2.76708e-13 -3.59254e-13 -16.3326 -15.4452 48.8091 -26.58 -25.0245 59.3217 -0.466482 19.0434 2.78058 1.78201e-09 -5.97087e-10 -1.96221e-09 3.05211e-09 -1.04714e-09 -3.40916e-09 1.78202e-09 -5.97095e-10 -1.96225e-09 7.73091 5.47488 0.417314 1.78201e-09 -5.97089e-10 -1.96222e-09 2.90554 0.965183 0.102902 1.78202e-09 -5.9709e-10 -1.96222e-09 10.2786 0.731801 0.0259123 1.78201e-09 -5.97091e-10 -1.96221e-09 2.22167 -0.733487 -0.20892 3.25567e-14 2.76708e-13 -3.59502e-13 -103.81 48.8417 53.7634 28.2677 -38.6435 -81.5238 2.69882 -41.4384 7.1271 9.43997e-11 4.24339e-10 7.67086e-11 1.69605e-10 7.67271e-10 1.24271e-10 9.43989e-11 4.24347e-10 7.67245e-11 -7.73091 5.47488 -0.417314 9.44005e-11 4.24341e-10 7.67182e-11 -2.90554 0.965183 -0.102902 9.43862e-11 4.24342e-10 7.67086e-11 -10.2786 0.731801 -0.0259123 9.44022e-11 4.24336e-10 7.67054e-11 -2.22167 -0.733487 0.20892 -2.03217e-16 0.0 -3.88251e-19 -15.911 -53.4202 -13.4612 -0.647222 52.4165 1.35476 -3.36062 -6.6631 -9.14931 2.03217e-16 0.0 3.88251e-19 10.726 8.69704 -15.3268 -0.126593 9.02718 -1.11676 6.26073 -15.8113 20.5027
-24.5062 76.213 15.07 1.0054 19.6494 13.1494 -7.67315 -12.5325 -3.08733 -1.58861 -5.16923 -0.781409 6.58937 1.74848 -1.19726 5.368 27.909 -4.73717 -0.0 0.0 0.0 -0.0 0.0 0.0 -1.49342e-14 1.94733e-13 -4.20834e-13 -15.0034 -16.914 48.9399 -26.1319 -23.7993 57.3502 -0.572589 20.9687 3.08714 1.81858e-09 -1.19291e-10 -1.37339e-09 3.122e-09 -2.24421e-10 -2.39737e-09 1.81858e-09 -1.19299e-10 -1.37342e-09 7.73091 5.47488 0.417314 1.81858e-09 -1.19293e-10 -1.37339e-09 2.90554 0.965183 0.102902 1.81859e-09 -1.19294e-10 -1.37339e-09 10.2786 0.731801 0.0259123 1.81858e-09 -1.19295e-10 -1.37338e-09 2.22167 -0.733487 -0.20892 -1.50538e-14 1.94735e-13 -4.21109e-13 -104.727 48.2195 55.0052 28.2695 -38.6247 -81.4921 2.83663 -42.2555 7.33481 6.4432e-10 1.59094e-09 1.9395e-10 1.11126e-09 2.73665e-09 3.47801e-10 6.4432e-10 1.59095e-09 1.93966e-10 -7.73091 5.47488 -0.417314 6.44321e-10 1.59094e-09 1.93958e-10 -2.90554 0.965183 -0.102902 6.44308e-10 1.59094e-09 1.93949e-10 -10.2786 0.731801 -0.0259123 6.44326e-10 1.59094e-09 1.93945e-10 -2.22167 -0.733487 0.20892 -2.03217e-16 0.0 -3.88251e-19 -15.9638 -53.5954 -13.8546 -0.666205 52.959 1.38531 -3.42827 -7.08717 -9.13055 2.03217e-16 0.0 3.88251e-19 10.9075 8.67476 -15.2613 -0.126831 9.10037 -1.1235 6.1746 -15.6193 20.5005
-24.7436 76.1268 15.4565 1.0417 19.7554 13.2599 -7.70958 -12.3959 -3.01175 -1.61586 -5.25113 -0.765049 6.50532 1.7483 -1.28584 5.68102 27.7716 -4.9601 -0.0 0.0 0.0 -0.0 0.0 0.0 -1.05846e-13 5.34694e-14 -5.25857e-13 -13.4166 -18.4558 49.2601 -25.6707 -22.6402 55.3726 -0.681173 22.8029 3.38574 1.91836e-09 7.52832e-10 -5.02313e-10 3.30589e-09 1.27916e-09 -9.00805e-10 1.91836e-09 7.52828e-10 -5.02334e-10 7.73091 5.47488 0.417314 1.91835e-09 7.52832e-10 -5.02314e-10 2.90554 0.965183 0.102902 1.91836e-09 7.52831e-10 -5.02313e-10 10.2786 0.731801 0.0259123 1.91835e-09 7.52831e-10 -5.02306e-10 2.22167 -0.733487 -0.20892 -1.05991e-13 5.34759e-14 -5.26167e-13 -105.698 47.6398 56.2224 28.269 -38.6274 -81.4977 3.00926 -43.2209 7.58889 1.61243e-09 3.93925e-09 4.55332e-10 2.76787e-09 6.7062e-09 8.35341e-10 1.61243e-09 3.93926e-09 4.55348e-10 -7.73091 5.47488 -0.417314 1.61243e-09 3.93925e-09 4.55336e-10 -2.90554 0.965183 -0.102902 1.61243e-09 3.93925e-09 4.5533e-10 -10.2786 0.731801 -0.0259123 1.61245e-09 3.93926e-09 4.55325e-10 -2.22167 -0.733487 0.20892 -2.03217e-16 0.0 -3.88251e-19 -16.0179 -53.7406 -14.2359 -0.684725 53.4765 1.41554 -3.49015 -7.51193 -9.09461 2.03217e-16 0.0 3.88251e-19 11.07 8.68591 -15.1729 -0.127072 9.16958 -1.13036 6.0847 -15.4537 20.4512
